<svg xmlns="http://www.w3.org/2000/svg" xmlns:xlink="http://www.w3.org/1999/xlink" width="104" height="64" viewBox="0 0 104 64">
  <defs>
    <linearGradient id="linear-gradient" x1="0.5" x2="0.5" y2="1" gradientUnits="objectBoundingBox">
      <stop offset="0" stop-color="#fff" stop-opacity="0"/>
      <stop offset="1" stop-color="gray" stop-opacity="0"/>
    </linearGradient>
    <clipPath id="clip-Custom_Size_1">
      <rect width="104" height="64"/>
    </clipPath>
  </defs>
  <g id="Custom_Size_1" data-name="Custom Size – 1" clip-path="url(#clip-Custom_Size_1)">
    <rect width="104" height="64" fill="url(#linear-gradient)"/>
    <rect id="Rectangle_2" data-name="Rectangle 2" width="64" height="64" fill="url(#linear-gradient)"/>
    <g id="balsamiq" transform="translate(-7.9 2)">
      <path id="Path_3" data-name="Path 3" d="M7.9,43.168a3.47,3.47,0,0,0,3.467,3.473h97.066a3.47,3.47,0,0,0,3.467-3.473V16.832a3.47,3.47,0,0,0-3.467-3.473H11.376a3.47,3.47,0,0,0-3.467,3.473Z" fill="#cf0a2c" fill-rule="evenodd"/>
      <path id="Path_4" data-name="Path 4" d="M24.525,35.48l.074-2.315V22.33h1.6v5.63h.037a3.326,3.326,0,0,1,3.056-1.648c2.223,0,3.8,1.852,3.778,4.574,0,3.2-2.02,4.8-4.02,4.8a3.194,3.194,0,0,1-3-1.685h-.056L25.92,35.48H24.513Zm1.685-3.593a3.063,3.063,0,0,0,.074.593,2.516,2.516,0,0,0,2.445,1.908c1.7,0,2.723-1.4,2.723-3.445,0-1.8-.926-3.334-2.667-3.334a2.61,2.61,0,0,0-2.482,2,3.206,3.206,0,0,0-.093.667Zm14.3,3.593-.13-1.13h-.056a3.338,3.338,0,0,1-2.74,1.334,2.553,2.553,0,0,1-2.74-2.574c0-2.167,1.926-3.352,5.4-3.334V29.6a1.848,1.848,0,0,0-2.037-2.074,4.468,4.468,0,0,0-2.333.667l-.37-1.07a5.557,5.557,0,0,1,2.945-.8c2.74,0,3.408,1.87,3.408,3.667v3.352A12.651,12.651,0,0,0,42,35.494Zm-.24-4.574c-1.778-.037-3.8.278-3.8,2.02a1.442,1.442,0,0,0,1.537,1.556,2.237,2.237,0,0,0,2.167-1.5,1.7,1.7,0,0,0,.093-.519Zm4.475-8.575h1.63v13.15h-1.63Zm4.328,11.482a4.27,4.27,0,0,0,2.148.648c1.185,0,1.74-.593,1.74-1.334,0-.778-.463-1.2-1.667-1.648-1.6-.574-2.373-1.463-2.373-2.537,0-1.445,1.167-2.63,3.093-2.63a4.476,4.476,0,0,1,2.2.556l-.407,1.185a3.49,3.49,0,0,0-1.833-.519c-.963,0-1.5.556-1.5,1.222,0,.74.537,1.074,1.7,1.52,1.556.593,2.352,1.37,2.352,2.7,0,1.574-1.222,2.686-3.352,2.686a5.115,5.115,0,0,1-2.52-.608Zm13,1.667-.13-1.13h-.056a3.338,3.338,0,0,1-2.74,1.334,2.553,2.553,0,0,1-2.74-2.574c0-2.167,1.926-3.352,5.4-3.334V29.6a1.848,1.848,0,0,0-2.037-2.074,4.468,4.468,0,0,0-2.333.667l-.37-1.07a5.557,5.557,0,0,1,2.945-.8c2.74,0,3.408,1.87,3.408,3.667v3.352a12.651,12.651,0,0,0,.148,2.148Zm-.24-4.574c-1.778-.037-3.8.278-3.8,2.02a1.442,1.442,0,0,0,1.537,1.556,2.23,2.23,0,0,0,2.167-1.5,1.7,1.7,0,0,0,.093-.519Zm4.462-1.963-.074-2.426h1.426l.074,1.445h.058a3.09,3.09,0,0,1,2.815-1.648,2.649,2.649,0,0,1,2.537,1.8h.037a3.585,3.585,0,0,1,1-1.167,3.06,3.06,0,0,1,1.98-.63c1.185,0,2.945.778,2.945,3.9v5.28H77.5V30.418c0-1.722-.63-2.76-1.945-2.76a2.11,2.11,0,0,0-1.926,1.482,2.692,2.692,0,0,0-.13.815v5.538H71.906v-5.37c0-1.426-.63-2.46-1.87-2.46a2.431,2.431,0,0,0-2.15,2.426V35.5H66.293v-6.54ZM83.821,24A1.01,1.01,0,0,1,81.8,24a.99.99,0,0,1,1.019-1.019.974.974,0,0,1,1,1.02ZM82,35.48V26.516h1.63V35.48Zm10.777-1.4h-.037a3.17,3.17,0,0,1-2.923,1.593c-2.092,0-3.8-1.815-3.8-4.538,0-3.352,2.167-4.834,4.056-4.834a2.935,2.935,0,0,1,2.76,1.556h.037l.058-1.35h1.537l-.055,2.463V39.137h-1.63V34.1Zm0-3.944a2.752,2.752,0,0,0-.074-.685A2.372,2.372,0,0,0,90.371,27.6c-1.685,0-2.7,1.426-2.7,3.445,0,1.778.852,3.334,2.648,3.334A2.426,2.426,0,0,0,92.648,32.6a2.74,2.74,0,0,0,.13-.778Z" transform="translate(-0.089)" fill="#fff"/>
    </g>
  </g>
</svg>
