<svg xmlns="http://www.w3.org/2000/svg" xmlns:xlink="http://www.w3.org/1999/xlink" width="64" height="64" viewBox="0 0 64 64">
  <defs>
    <linearGradient id="linear-gradient" x1="0.5" x2="0.5" y2="1" gradientUnits="objectBoundingBox">
      <stop offset="0" stop-color="#fff" stop-opacity="0"/>
      <stop offset="1" stop-color="gray" stop-opacity="0"/>
    </linearGradient>
    <clipPath id="clip-Custom_Size_3">
      <rect width="64" height="64"/>
    </clipPath>
  </defs>
  <g id="Custom_Size_3" data-name="Custom Size – 3" clip-path="url(#clip-Custom_Size_3)">
    <rect width="64" height="64" fill="url(#linear-gradient)"/>
    <rect id="Rectangle_1" data-name="Rectangle 1" width="64" height="64" rx="18" fill="#242938"/>
    <g id="Group_1" data-name="Group 1" transform="translate(-119.979 -91.119)">
      <path id="Path_6" data-name="Path 6" d="M83.88,38.755,67.252,28.884a6.265,6.265,0,0,0-6.416,0L44.207,38.755A6.632,6.632,0,0,0,41,44.466V64.208a6.633,6.633,0,0,0,3.208,5.712l16.629,9.869a6.265,6.265,0,0,0,6.415,0L83.88,69.92a6.634,6.634,0,0,0,3.208-5.712V44.466A6.633,6.633,0,0,0,83.88,38.755Z" transform="translate(88 69)" fill="#242938" fill-rule="evenodd"/>
      <path id="Path_7" data-name="Path 7" d="M61.418,78.779,44.789,68.909a5.472,5.472,0,0,1-2.637-4.7V44.467a5.472,5.472,0,0,1,2.636-4.7l16.629-9.871a5.129,5.129,0,0,1,5.253,0L83.3,39.766a5.437,5.437,0,0,1,2.555,3.8c-.551-1.177-1.8-1.5-3.245-.65L66.878,52.634c-1.962,1.147-3.408,2.433-3.409,4.8V76.818c0,1.416.571,2.334,1.45,2.6a4.977,4.977,0,0,1-3.5-.639ZM83.88,38.755l-16.629-9.87a6.264,6.264,0,0,0-6.416,0l-16.629,9.87A6.633,6.633,0,0,0,41,44.467V64.208a6.633,6.633,0,0,0,3.208,5.712l16.629,9.869a6.265,6.265,0,0,0,6.415,0L83.88,69.92a6.633,6.633,0,0,0,3.208-5.712V44.467A6.632,6.632,0,0,0,83.88,38.755Z" transform="translate(88 69)" fill="#fff" fill-rule="evenodd"/>
      <path id="Path_8" data-name="Path 8" d="M175.151,172.654l-4.141,2.478a.306.306,0,0,0-.191.268v1.083c0,.132.089.188.2.123l4.2-2.555a.334.334,0,0,0,.127-.318v-.956C175.35,172.646,175.261,172.59,175.151,172.654Z" transform="translate(-7.63 -37.538)" fill="#47b353" fill-rule="evenodd"/>
      <path id="Path_9" data-name="Path 9" d="M145.295,138.032c.134-.068.244.016.246.191l.014,1.432a2.648,2.648,0,0,1,1.593-.193c.1.027.148.167.106.332l-.315,1.269a.544.544,0,0,1-.144.253.339.339,0,0,1-.083.062.188.188,0,0,1-.124.02,2.109,2.109,0,0,0-1.534.248,1.928,1.928,0,0,0-1.135,1.708c.007.651.341.848,1.494.868,1.536.026,2.2.7,2.216,2.244a5.5,5.5,0,0,1-2.036,4.151l.027,1.418a.521.521,0,0,1-.243.434l-.84.484c-.135.068-.245-.016-.247-.186l-.014-1.395a2.734,2.734,0,0,1-1.914.184c-.088-.034-.125-.164-.091-.311l.3-1.282a.529.529,0,0,1,.15-.267.318.318,0,0,1,.079-.058.168.168,0,0,1,.135-.014,2.341,2.341,0,0,0,1.761-.222,2.3,2.3,0,0,0,1.3-1.991c-.008-.721-.4-1.02-1.347-1.027-1.208,0-2.334-.235-2.352-2.013a5.164,5.164,0,0,1,1.951-3.95l-.015-1.431a.515.515,0,0,1,.244-.439Z" transform="translate(13.409 -12.036)" fill="#242938" fill-rule="evenodd"/>
    </g>
  </g>
</svg>
