<svg xmlns="http://www.w3.org/2000/svg" xmlns:xlink="http://www.w3.org/1999/xlink" width="64" height="64" viewBox="0 0 64 64">
  <defs>
    <linearGradient id="linear-gradient" x1="0.5" x2="0.5" y2="1" gradientUnits="objectBoundingBox">
      <stop offset="0" stop-color="#fff" stop-opacity="0"/>
      <stop offset="1" stop-color="gray" stop-opacity="0"/>
    </linearGradient>
    <clipPath id="clip-Custom_Size_1">
      <rect width="64" height="64"/>
    </clipPath>
  </defs>
  <g id="Custom_Size_1" data-name="Custom Size – 1" clip-path="url(#clip-Custom_Size_1)">
    <rect width="64" height="64" fill="url(#linear-gradient)"/>
    <rect id="Rectangle_1" data-name="Rectangle 1" width="64" height="64" rx="18" fill="#2e0c01"/>
    <g id="jest" transform="translate(-123.959 -70.681)">
      <path id="Path_20" data-name="Path 20" d="M609.259,295.6l-2.573,5.2a5.559,5.559,0,0,1,1.678,2.983H610.3a5.574,5.574,0,0,1,1.554-2.871Z" transform="translate(-446.989 -202.525)" fill="#f37c56"/>
      <path id="Path_21" data-name="Path 21" d="M175.37,97.017l4.736-9.57,4.723,9.632c.186-.062.373-.112.559-.161l4.487-13.237H170.324l4.474,13.2c.186.037.385.087.572.137Zm-1.628,8.464a3.134,3.134,0,0,0,2.622-4.847,3.072,3.072,0,0,0-.348-.448l-.012-.012a2.318,2.318,0,0,0-.423-.36l-.012-.012a1.285,1.285,0,0,0-.137-.087c-.012,0-.012-.012-.025-.012-.05-.025-.1-.062-.149-.087h-.012c-.05-.025-.112-.062-.162-.087h-.012a.753.753,0,0,0-.149-.062c-.012,0-.025-.013-.037-.013-.037-.012-.087-.037-.124-.05-.013,0-.025-.012-.05-.012-.05-.013-.1-.037-.149-.05h-.012l-.174-.037a.094.094,0,0,1-.05-.012c-.05-.013-.087-.013-.137-.025a.112.112,0,0,1-.062-.012c-.037,0-.087-.012-.124-.012h-.485c-.05,0-.087.012-.137.012h-.05c-.05.012-.1.012-.149.025h-.037l-.174.037a3.145,3.145,0,0,0-2.386,3.045A3.178,3.178,0,0,0,173.741,105.481Zm13.175-6.264h-.025c-.05,0-.087-.012-.137-.012h-.162a1.14,1.14,0,0,0-.2.012h-.062c-.05,0-.1.012-.149.012a.075.075,0,0,0-.05.012l-.186.037h-.012l-.174.037c-.012,0-.037.012-.05.012a.7.7,0,0,0-.149.05c-.012,0-.025.013-.037.013-.062.025-.124.05-.174.074s-.112.05-.174.075c-.012,0-.025.012-.037.012a.928.928,0,0,0-.149.087.012.012,0,0,0-.012.012,1.876,1.876,0,0,0-.323.224l-.012.012a3.414,3.414,0,0,0-.435.41,2.75,2.75,0,0,0-.348.5,3.13,3.13,0,1,0,3.331-1.529,1.545,1.545,0,0,0-.274-.05Zm-26.163,6.264a3.132,3.132,0,1,0-3.132-3.132A3.135,3.135,0,0,0,160.753,105.481Z" transform="translate(-17.835)" fill="#f37c56"/>
      <path id="Path_22" data-name="Path 22" d="M168.77,540.275a5.575,5.575,0,0,1-5.382-4.164H161.3a5.575,5.575,0,0,1-5.382,4.164,6.339,6.339,0,0,1-.858-.062,16.692,16.692,0,0,1-2.585,3.07,17.119,17.119,0,0,1-5.966,3.7l-.51.187-.472-.248a6.324,6.324,0,0,1-3.48-6.7,4.821,4.821,0,0,1-.858-.224c-.05.087-.087.186-.137.286a19.211,19.211,0,0,0-1.927,5.146c-.323,1.939-.46,5.481,2.275,7.37a6.605,6.605,0,0,0,3.853,1.23c2.7,0,5.605-1.442,8.688-2.971a37.481,37.481,0,0,1,7.482-3.07c.982-.236,1.976-.385,2.933-.522a13.239,13.239,0,0,0,4.773-1.28,5.49,5.49,0,0,0,2.7-3.816,5.573,5.573,0,0,0-.248-2.859,5.615,5.615,0,0,1-2.809.758Z" transform="translate(0 -432.37)" fill="#f37c56"/>
    </g>
  </g>
</svg>
