<svg xmlns="http://www.w3.org/2000/svg" xmlns:xlink="http://www.w3.org/1999/xlink" width="64" height="64" viewBox="0 0 64 64">
  <defs>
    <linearGradient id="linear-gradient" x1="0.5" x2="0.5" y2="1" gradientUnits="objectBoundingBox">
      <stop offset="0" stop-color="#ff8051"/>
      <stop offset="1" stop-color="#d23900"/>
    </linearGradient>
    <clipPath id="clip-Custom_Size_1">
      <rect width="64" height="64"/>
    </clipPath>
  </defs>
  <g id="Custom_Size_1" data-name="Custom Size – 1" clip-path="url(#clip-Custom_Size_1)">
    <rect width="64" height="64" fill="rgba(255,255,255,0)"/>
    <rect id="Rectangle_1" data-name="Rectangle 1" width="64" height="64" rx="18" fill="url(#linear-gradient)"/>
    <g id="Group_2" data-name="Group 2" transform="translate(-124.959 -30.751)">
      <path id="Path_4" data-name="Path 4" d="M74.061,49.961c-2.77,4.055-2.425,9.331-.315,13.635l.155.307.1.194c.019.038.042.075.062.112.037.068.073.134.1.2l.2.353.115.194.234.373.1.157c.1.168.223.335.34.5l.009.013a.762.762,0,0,1,.052.079c.1.141.21.281.315.419l.116.151.286.358.109.133q.195.235.4.464l.008.008.016.017q.2.223.4.435l.13.133.324.323.132.128q.218.209.443.411l.084.073.4.346.167.135.336.262.179.139.513.375.038.027c.121.084.243.165.365.247l.158.107.573.357.158.091.43.245c.079.043.159.084.237.125l.307.157.071.035.126.062.487.23.1.052q.282.125.568.241l.138.056.536.2.067.024q.3.1.6.2l.144.044a6.212,6.212,0,0,0,.617.178c13.4,2.494,17.29-8.194,17.29-8.194-3.268,4.337-9.07,5.48-14.567,4.207-.208-.052-.41-.114-.614-.175l-.153-.052c-.2-.062-.4-.128-.59-.2l-.081-.03q-.262-.094-.521-.2l-.147-.059q-.283-.114-.562-.238l-.112-.05-.474-.226-.136-.067q-.185-.093-.367-.19l-.245-.131q-.222-.122-.439-.251l-.148-.084c-.193-.115-.384-.236-.573-.357-.052-.034-.1-.07-.155-.1l-.408-.276-.131-.094-.385-.283-.171-.131-.348-.277-.155-.126-.433-.367a.45.45,0,0,0-.052-.041c-.154-.138-.306-.279-.455-.422l-.128-.126-.327-.326-.128-.131q-.2-.212-.4-.432l-.02-.021q-.208-.232-.407-.472l-.106-.129-.294-.369-.108-.136-.338-.459c-3.052-4.24-4.143-10.087-1.71-14.89Zm8.6-3.417a9.966,9.966,0,0,0-.332,9.972,13.038,13.038,0,0,0,.886,1.507,7.118,7.118,0,0,0,1.032,1.311c.144.157.3.315.449.475.039.04.079.079.118.119q.225.223.459.435l.019.017q.265.235.541.456l.122.1q.275.216.561.418l.016.012c.084.059.17.115.256.172.041.027.08.056.121.082q.205.134.416.26l.059.035.367.21c.043.025.087.046.131.069l.262.135.039.018c.177.089.355.173.537.254l.118.05c.145.063.292.124.441.182l.189.07q.2.075.4.143l.182.059a4.347,4.347,0,0,0,.584.172c10.344,1.745,12.733-6.366,12.733-6.366-2.153,3.157-6.321,4.664-10.77,3.488q-.3-.079-.586-.173c-.059-.018-.117-.038-.176-.052q-.206-.068-.41-.144l-.185-.07c-.148-.052-.3-.118-.44-.181-.04-.017-.08-.033-.119-.051q-.274-.12-.54-.256c-.091-.045-.181-.093-.271-.141l-.156-.082q-.173-.1-.342-.2L89.292,59q-.209-.125-.414-.258c-.042-.027-.083-.052-.125-.085l-.269-.181q-.285-.2-.559-.416l-.126-.1a12.7,12.7,0,0,1-4.225-6.132,9.65,9.65,0,0,1,.734-7.633Zm7.232-2.553a6.222,6.222,0,0,0-.472,5.924,8.252,8.252,0,0,0,4.7,4.475c.085.032.171.061.262.091l.113.037a3.236,3.236,0,0,0,.368.108c5.712,1.124,7.261-2.985,7.673-3.59-1.357,1.99-3.638,2.468-6.436,1.776-.22-.055-.464-.136-.682-.213a8.176,8.176,0,0,1-.8-.34,8.293,8.293,0,0,1-1.41-.876c-2.509-1.935-4.065-5.626-2.431-8.632" transform="translate(69.518 -4)" fill="#fff"/>
      <path id="Path_5" data-name="Path 5" d="M89.094,174.958l-.387,1.372.387-1.371Zm1.991,2.978-.426,0Zm-.1,2.048-2.555.009Zm.535-2.045-.427,0Zm-.305,1.871.446-1.7Zm9.4-7.817-.829,3.9Zm-2.132,0-.629,2.912Z" transform="translate(57.703 -97.385)" fill="#fff"/>
      <path id="Path_6" data-name="Path 6" d="M111.073,171.358H109.3a.233.233,0,0,0-.217.175l-1.259,5.825a.232.232,0,0,1-.216.174h-1.255c-1.242,0-1.1-.858-.839-2.035l.008-.036.15-.8.065-.33.573-2.8a.141.141,0,0,0-.143-.176h-1.82a.23.23,0,0,0-.216.175l-.82,3.888c-.451,2.058-.331,4.02,2.119,4.082h3.916a.232.232,0,0,0,.217-.175l1.658-7.8a.139.139,0,0,0-.141-.175Zm7.073,6.195a.143.143,0,0,1,.143.175l-.172.842Zm-.2,1.859.172-.842Zm-.216.177-3.267.016Z" transform="translate(47.095 -96.926)" fill="#fff"/>
      <path id="Path_7" data-name="Path 7" d="M140.063,189.12c0-.092.1-.251.2-.251l-.221,0C139.939,189.87,140.063,189.12,140.063,189.12Zm1.22,3.135h0Zm3.522-2.051a.143.143,0,0,1,.143.175l-.2.979Zm-2.683,2.054h0Zm-.435,0h0Zm-.133,0h0Zm-.13,0h0Zm.242,0h0Z" transform="translate(20.436 -109.577)" fill="#fff"/>
      <path id="Path_8" data-name="Path 8" d="M70.909,179.547h0Zm2.274-.013-2.268.014Zm.21-.182.144-.7-.144.705Zm-3.092.192h0Zm-.26,0h0Zm.135,0h0ZM44.239,176.43l.275-1.221L44.2,176.6l-.037.175.077-.35Zm3.3-5.152H45.589a.237.237,0,0,0-.219.175L45,173.078a.136.136,0,0,0,.139.175H47.1a.233.233,0,0,0,.217-.175l.357-1.629a.138.138,0,0,0-.142-.175Zm-.424,2.71-.577,2.642Zm-5.656,8.755,1.606.013c-.474,0-1.257-.009-1.606-.013Z" transform="translate(91.642 -96.866)" fill="#fff"/>
      <path id="Path_9" data-name="Path 9" d="M44.426,176.8l-.276,1.221Zm2.187-.175H44.65a.237.237,0,0,0-.219.175l-.551,2.441-.077.35-.524,2.492c-.026.116-.057.231-.094.345,0,0-.367,1.091-.983,1.079l-.611-.011a.236.236,0,0,0-.22.171l-.406,1.711a.136.136,0,0,0,.073.164.139.139,0,0,0,.064.012l1.606.013c1.54,0,2.351-.853,2.872-3.308l1.18-5.454a.139.139,0,0,0-.142-.174Zm27.879,5.631a.141.141,0,0,1-.141-.175l1.476-6.915Zm2.052-.176.6-2.951Z" transform="translate(92 -99.68)" fill="#fff"/>
      <path id="Path_10" data-name="Path 10" d="M161.323,183.376a.763.763,0,0,1,.016-.262l.7-3.283-.738,3.457a.139.139,0,0,0,.141.175h.18C161.524,183.464,161.335,183.424,161.323,183.376Zm2.056.048a.952.952,0,0,1-.277.039h.179a.23.23,0,0,0,.215-.176l.036-.175a.645.645,0,0,1-.157.311Zm.414-1.612.264-1.3Zm5.825-4.976.081.336a.136.136,0,0,1-.138.175" transform="translate(5.048 -100.886)" fill="#fff"/>
      <path id="Path_11" data-name="Path 11" d="M165.465,181.611l.262-1.3Zm6.008-6.627.08.344Zm-5.481,4.023.072-.348.282-1.319-.319,1.493-.035.173Zm-1.255-4.25-.061.288-.7,3.283.739-3.457.024-.113Z" transform="translate(3.113 -99.383)" fill="#fff"/>
      <path id="Path_12" data-name="Path 12" d="M99.963,167.508l-.081-.336-.12-.524c-.16-.619-.627-.977-1.644-.977l-4.678,0a.23.23,0,0,0-.216.175l-.072.343-.1.517-1.439,6.74a.752.752,0,0,0-.016.262c.012.052.2.088.3.088H93.37a.945.945,0,0,0,.277-.039c.054-.022.133-.21.157-.312l.561-2.776.6-2.813a.232.232,0,0,1,.216-.174l4.653,0a.136.136,0,0,0,.138-.174Zm5.99-3.038h-1.847a.385.385,0,0,0-.28.148l-3.293,4.825c-.055.081-.119.069-.141-.026l-.242-1.063a.235.235,0,0,0-.219-.175H97.813a.128.128,0,0,0-.13.172l.944,3.324a.8.8,0,0,1,.005.346l-.419,1.609a.129.129,0,0,0-.006.064.131.131,0,0,0,.077.1.129.129,0,0,0,.064.011h2.1a.244.244,0,0,0,.224-.173l.419-1.608a1.066,1.066,0,0,1,.152-.317l5.352-7.1c.059-.079.027-.143-.071-.142l-.561,0Zm-16.821,4.162a.216.216,0,0,1-.21.184H86.238a.115.115,0,0,1-.126-.142l0-.014.012-.045a1.687,1.687,0,0,1,1.76-1.129c1.105,0,1.321.54,1.246,1.147Zm-.788-3.1c-3.445,0-4.262,2.091-4.719,4.2-.458,2.152-.419,4.164,3.146,4.164h.565l.435,0,2.269-.014a.23.23,0,0,0,.213-.176l.345-1.684a.14.14,0,0,0-.143-.175H87.25c-1.274,0-1.653-.339-1.514-1.334H90.86a.211.211,0,0,0,.2-.177c.76-2.868.542-4.8-2.716-4.8ZM72.06,168.621l-.048.171-.387,1.372-.387,1.371a.251.251,0,0,1-.228.172H68.962c-1.553,0-1.931-1.215-1.553-3.007.378-1.833,1.12-2.972,2.648-3.088,2.089-.157,2.507,1.312,2,3.008Zm1.4,2.981a23.044,23.044,0,0,0,1.185-3.7c.3-1.813-.608-4.442-4.114-4.442-3.486,0-5,2.51-5.577,5.244s.179,5.158,3.645,5.139l5.289-.019a.246.246,0,0,0,.224-.174l.446-1.7a.133.133,0,0,0,.006-.064.132.132,0,0,0-.076-.1.131.131,0,0,0-.063-.011l-.853-.005a.109.109,0,0,1-.122-.126.19.19,0,0,1,.01-.04Z" transform="translate(74.785 -91.221)" fill="#fff"/>
      <path id="Path_13" data-name="Path 13" d="M157.655,186.844a.117.117,0,1,1-.117-.118A.117.117,0,0,1,157.655,186.844Z" transform="translate(7.85 -108.031)" fill="#fff"/>
    </g>
  </g>
</svg>
