<svg xmlns="http://www.w3.org/2000/svg" xmlns:xlink="http://www.w3.org/1999/xlink" width="64" height="64" viewBox="0 0 64 64">
  <defs>
    <linearGradient id="linear-gradient" x1="0.5" x2="0.5" y2="1" gradientUnits="objectBoundingBox">
      <stop offset="0" stop-color="#fff194"/>
      <stop offset="1" stop-color="#ecd746"/>
    </linearGradient>
    <clipPath id="clip-Custom_Size_1">
      <rect width="64" height="64"/>
    </clipPath>
  </defs>
  <g id="Custom_Size_1" data-name="Custom Size – 1" clip-path="url(#clip-Custom_Size_1)">
    <rect width="64" height="64" fill="rgba(255,255,255,0)"/>
    <rect id="Rectangle_1" data-name="Rectangle 1" width="64" height="64" rx="18" fill="url(#linear-gradient)"/>
    <g id="Group_1" data-name="Group 1" transform="translate(-249.042 17.372)">
      <path id="Path_1" data-name="Path 1" d="M67.311,135.936l3.741-2.264c.722,1.28,1.378,2.362,2.953,2.362,1.509,0,2.461-.59,2.461-2.887V117.529h4.594v15.683c0,4.758-2.789,6.923-6.858,6.923a7.129,7.129,0,0,1-6.89-4.2" transform="translate(207 -101.113)" fill="#323330"/>
      <path id="Path_2" data-name="Path 2" d="M152.381,134.331l3.74-2.165a5,5,0,0,0,4.528,2.789c1.9,0,3.117-.952,3.117-2.264,0-1.575-1.247-2.133-3.347-3.051l-1.148-.492c-3.314-1.411-5.513-3.183-5.513-6.923,0-3.445,2.625-6.07,6.727-6.07a6.784,6.784,0,0,1,6.529,3.675l-3.576,2.3a3.128,3.128,0,0,0-2.953-1.969,2,2,0,0,0-2.2,1.969c0,1.378.853,1.936,2.822,2.789l1.148.492c3.9,1.674,6.1,3.379,6.1,7.218,0,4.135-3.248,6.4-7.612,6.4-4.265,0-7.022-2.034-8.367-4.692" transform="translate(138.173 -100)" fill="#323330"/>
    </g>
  </g>
</svg>
