<svg xmlns="http://www.w3.org/2000/svg" xmlns:xlink="http://www.w3.org/1999/xlink" width="64" height="64" viewBox="0 0 64 64">
  <defs>
    <linearGradient id="linear-gradient" x1="0.5" x2="0.5" y2="1" gradientUnits="objectBoundingBox">
      <stop offset="0" stop-color="#fff" stop-opacity="0"/>
      <stop offset="1" stop-color="gray" stop-opacity="0"/>
    </linearGradient>
    <clipPath id="clip-Custom_Size_3">
      <rect width="64" height="64"/>
    </clipPath>
  </defs>
  <g id="Custom_Size_3" data-name="Custom Size – 3" clip-path="url(#clip-Custom_Size_3)">
    <rect width="64" height="64" fill="url(#linear-gradient)"/>
    <rect id="Rectangle_1" data-name="Rectangle 1" width="64" height="64" rx="18" fill="#242938"/>
    <path id="laravel" d="M51.69,10.335a.511.511,0,0,0-.025-.061.761.761,0,0,0-.047-.112.534.534,0,0,0-.048-.063.836.836,0,0,0-.064-.084c-.021-.02-.046-.036-.069-.054a.789.789,0,0,0-.08-.061l-8.59-4.946a.714.714,0,0,0-.714,0L33.459,9.9h0a.72.72,0,0,0-.079.062.685.685,0,0,0-.07.054.735.735,0,0,0-.064.083c-.015.021-.035.04-.048.063a.865.865,0,0,0-.046.112c-.007.021-.019.039-.025.061a.721.721,0,0,0-.025.186v9.392l-7.159,4.122V5.66a.7.7,0,0,0-.025-.187c-.005-.021-.018-.04-.025-.061a.745.745,0,0,0-.046-.111c-.012-.023-.033-.042-.048-.064a.835.835,0,0,0-.064-.084.844.844,0,0,0-.07-.054.875.875,0,0,0-.079-.061h0L16.993.094a.714.714,0,0,0-.714,0L7.688,5.04h0a.582.582,0,0,0-.079.062.7.7,0,0,0-.071.054.727.727,0,0,0-.063.083c-.016.022-.036.041-.049.064a.7.7,0,0,0-.046.111.576.576,0,0,0-.026.06.73.73,0,0,0-.025.187V35.083a.714.714,0,0,0,.357.62l17.179,9.892a.788.788,0,0,0,.119.048c.019.007.037.018.056.023a.707.707,0,0,0,.366,0c.018,0,.033-.014.049-.02a.768.768,0,0,0,.125-.052L42.765,35.7a.714.714,0,0,0,.357-.62V25.689l8.232-4.74a.714.714,0,0,0,.357-.625v-9.8A.77.77,0,0,0,51.69,10.335ZM16.635,1.54h0l7.156,4.119L16.634,9.78,9.479,5.66Zm7.876,5.355V24.861l-4.152,2.391-3.007,1.731V11.02L21.5,8.629Zm0,36.837L8.761,34.669V6.9l3.007,1.73L15.92,11.02v19.2a.619.619,0,0,0,.011.08.713.713,0,0,0,.014.105h0a.528.528,0,0,0,.034.08.569.569,0,0,0,.037.089h0a.763.763,0,0,0,.054.07.68.68,0,0,0,.059.075h0c.021.02.046.034.069.052a.8.8,0,0,0,.077.059h0L24.5,35.49Zm.714-9.475L18.08,30.213l7.5-4.32,8.233-4.74,7.151,4.117-5.247,2.995Zm16.467.408-15.75,9.071V35.5l11.666-6.657,4.085-2.334Zm0-10.631-3.007-1.725-4.152-2.391V11.76l3.007,1.731,4.152,2.393Zm.714-9.4-7.157-4.12L42.406,6.4l7.155,4.119Zm.714,9.4v-8.15l4.161-2.393,3.006-1.731v8.156h0Z" transform="translate(2.67 9.002)" fill="#fb3333"/>
  </g>
</svg>
