<svg xmlns="http://www.w3.org/2000/svg" xmlns:xlink="http://www.w3.org/1999/xlink" width="64" height="64" viewBox="0 0 64 64">
  <defs>
    <clipPath id="clip-Custom_Size_1">
      <rect width="64" height="64"/>
    </clipPath>
  </defs>
  <g id="Custom_Size_1" data-name="Custom Size – 1" clip-path="url(#clip-Custom_Size_1)">
    <rect width="64" height="64" fill="rgba(255,255,255,0)"/>
    <rect id="Rectangle_1" data-name="Rectangle 1" width="64" height="64" rx="18" fill="#fff"/>
    <g id="lodash-icon" transform="translate(11 9.787)">
      <path id="Path_14" data-name="Path 14" d="M0,3.213H3.894V29.052h15.4v3.185H0Zm31.432,7.009a9.617,9.617,0,0,0-9.2,6.317c-1.77,4.425-.955,9.982,2.513,13.362a11.348,11.348,0,0,0,12.212,1.027,9.171,9.171,0,0,0,4.6-7.009,14.562,14.562,0,0,0-1.239-9.026,9.746,9.746,0,0,0-8.5-4.654l-.39-.052Zm.354,3.08a6.21,6.21,0,0,1,6.017,5.09c.885,3.239.354,7.2-2.3,9.486a6.2,6.2,0,0,1-8.5-.761c-2.478-2.655-2.478-6.725-1.2-9.911a6.145,6.145,0,0,1,5.717-3.894h.318Z" transform="translate(0 0)"/>
      <path id="Path_15" data-name="Path 15" d="M0,54.007H41.768v4.425H0Z" transform="translate(0 -17.645)" fill="#3492ff"/>
    </g>
  </g>
</svg>
