<svg xmlns="http://www.w3.org/2000/svg" xmlns:xlink="http://www.w3.org/1999/xlink" width="64" height="64" viewBox="0 0 64 64">
  <defs>
    <linearGradient id="linear-gradient" x1="0.5" x2="0.5" y2="1" gradientUnits="objectBoundingBox">
      <stop offset="0" stop-color="#fff" stop-opacity="0"/>
      <stop offset="1" stop-color="gray" stop-opacity="0"/>
    </linearGradient>
    <clipPath id="clip-Custom_Size_3">
      <rect width="64" height="64"/>
    </clipPath>
  </defs>
  <g id="Custom_Size_3" data-name="Custom Size – 3" clip-path="url(#clip-Custom_Size_3)">
    <rect width="64" height="64" fill="url(#linear-gradient)"/>
    <rect id="Rectangle_1" data-name="Rectangle 1" width="64" height="64" rx="18" fill="#242938"/>
    <g id="mysql-seeklogo.com" transform="translate(10.737 11.152)">
      <path id="Path_1" data-name="Path 1" d="M39.15,32.249a13.373,13.373,0,0,0-5.6.809c-.433.173-1.127.173-1.185.722.231.231.26.607.462.925a6.77,6.77,0,0,0,1.5,1.762c.607.462,1.213.924,1.849,1.329,1.127.693,2.4,1.1,3.5,1.791.636.4,1.271.925,1.907,1.358.318.231.52.607.925.751v-.087c-.2-.26-.26-.636-.462-.925-.289-.289-.578-.549-.867-.838a13.707,13.707,0,0,0-3-2.918c-.924-.636-2.947-1.5-3.322-2.571l-.058-.058a11.748,11.748,0,0,0,1.993-.462c.982-.26,1.878-.2,2.889-.462.462-.116.924-.26,1.387-.4v-.26c-.52-.52-.9-1.213-1.444-1.7a38.519,38.519,0,0,0-4.767-3.553c-.9-.578-2.051-.953-3-1.444-.346-.174-.924-.26-1.126-.549a11.652,11.652,0,0,1-1.185-2.224c-.838-1.589-1.647-3.351-2.369-5.027a30.74,30.74,0,0,0-1.473-3.294,29.117,29.117,0,0,0-11.18-10.8,13.885,13.885,0,0,0-3.7-1.184c-.722-.029-1.444-.087-2.167-.116A11.5,11.5,0,0,1,7.313,1.8C5.667.759,1.42-1.494.207,1.482c-.78,1.878,1.156,3.727,1.82,4.68A13.621,13.621,0,0,1,3.5,8.329c.2.491.26,1.011.462,1.531a34.684,34.684,0,0,0,1.5,3.871,13.962,13.962,0,0,0,1.069,1.791c.231.318.635.462.722.982a8.27,8.27,0,0,0-.665,2.167,12.727,12.727,0,0,0,.838,9.707c.462.722,1.56,2.311,3.033,1.7,1.3-.52,1.011-2.167,1.387-3.611.087-.347.029-.578.2-.809,0,.029,0,.058,0,.058.4.809.809,1.589,1.184,2.4a16.5,16.5,0,0,0,3.756,3.871c.694.52,1.242,1.415,2.109,1.733v-.087h-.058a3.184,3.184,0,0,0-.664-.578,14.032,14.032,0,0,1-1.5-1.733,37.154,37.154,0,0,1-3.236-5.258c-.462-.9-.867-1.878-1.242-2.773-.173-.347-.173-.867-.462-1.04a10.881,10.881,0,0,0-1.387,1.964A16.292,16.292,0,0,0,9.74,28.58c-.115.029-.058,0-.116.058-.924-.231-1.242-1.184-1.589-1.993a12.5,12.5,0,0,1-.26-7.713c.2-.607,1.069-2.513.722-3.091-.173-.549-.751-.867-1.069-1.3a11.642,11.642,0,0,1-1.04-1.849C5.7,11.073,5.349,9.282,4.6,7.664A15.38,15.38,0,0,0,3.153,5.44,14.3,14.3,0,0,1,1.565,3.186C1.42,2.868,1.218,2.348,1.449,2a.46.46,0,0,1,.4-.376c.376-.318,1.444.087,1.82.26a14.731,14.731,0,0,1,2.86,1.444c.4.289.838.838,1.358.982H8.5c.924.2,1.964.058,2.831.318a18.462,18.462,0,0,1,4.16,1.993A25.63,25.63,0,0,1,24.5,16.5c.347.664.491,1.271.809,1.964.607,1.416,1.358,2.86,1.965,4.247a18.99,18.99,0,0,0,2.051,3.871c.434.606,2.167.924,2.947,1.242a20.489,20.489,0,0,1,1.993.809c.982.606,1.965,1.3,2.889,1.965.462.347,1.907,1.069,1.993,1.647Z" transform="translate(0 0)" fill="#fff"/>
      <path id="Path_2" data-name="Path 2" d="M52.238,43.022a4.573,4.573,0,0,0-1.184.145v.058h.058a9.306,9.306,0,0,0,.924,1.184c.231.462.433.924.665,1.387l.058-.058a1.63,1.63,0,0,0,.607-1.444,6.464,6.464,0,0,1-.347-.607c-.173-.289-.549-.433-.78-.665Z" transform="translate(-42.556 -35.878)" fill="#fff"/>
    </g>
  </g>
</svg>
