<svg xmlns="http://www.w3.org/2000/svg" xmlns:xlink="http://www.w3.org/1999/xlink" width="64" height="64" viewBox="0 0 64 64">
  <defs>
    <linearGradient id="linear-gradient" x1="0.5" x2="0.5" y2="1" gradientUnits="objectBoundingBox">
      <stop offset="0" stop-color="#fff" stop-opacity="0"/>
      <stop offset="1" stop-color="gray" stop-opacity="0"/>
    </linearGradient>
    <clipPath id="clip-Custom_Size_1">
      <rect width="64" height="64"/>
    </clipPath>
  </defs>
  <g id="Custom_Size_1" data-name="Custom Size – 1" clip-path="url(#clip-Custom_Size_1)">
    <rect width="64" height="64" fill="url(#linear-gradient)"/>
    <rect id="Rectangle_2" data-name="Rectangle 2" width="64" height="64" fill="url(#linear-gradient)"/>
    <rect id="Rectangle_1" data-name="Rectangle 1" width="60" height="60" rx="18" transform="translate(2 2)" fill="#001e36" stroke="#31a8ff" stroke-width="3"/>
    <g id="Group_1" data-name="Group 1" transform="translate(-119.6 -148.467)">
      <path id="Path_1" data-name="Path 1" d="M57.6,91.624V66.875c0-.168.072-.265.241-.265.409,0,.794,0,1.347-.024.577-.024,1.179-.024,1.828-.048s1.347-.024,2.092-.048,1.467-.024,2.189-.024a14.143,14.143,0,0,1,4.955.746,8.589,8.589,0,0,1,3.223,1.972,7.66,7.66,0,0,1,1.756,2.742,9.206,9.206,0,0,1,.553,3.127,8.6,8.6,0,0,1-1.443,5.123,8.241,8.241,0,0,1-3.872,2.934,15.587,15.587,0,0,1-5.412.818c-.577,0-.962,0-1.2-.024s-.577-.024-1.034-.024V91.6a.3.3,0,0,1-.265.337H57.889C57.7,91.937,57.6,91.841,57.6,91.624Zm5.243-20.372v8.081c.337.024.649.048.938.048h1.275a8.983,8.983,0,0,0,2.766-.433,4.136,4.136,0,0,0,1.972-1.275A3.716,3.716,0,0,0,70.54,75.2a3.96,3.96,0,0,0-.553-2.141A3.488,3.488,0,0,0,68.3,71.686a7.058,7.058,0,0,0-2.838-.481c-.625,0-1.179,0-1.635.024A5.508,5.508,0,0,0,62.843,71.253Z" transform="translate(77 101)" fill="#31a8ff"/>
      <path id="Path_2" data-name="Path 2" d="M162.077,98.356a8.512,8.512,0,0,0-2.309-.818,12.683,12.683,0,0,0-2.694-.313,4.851,4.851,0,0,0-1.443.168,1.235,1.235,0,0,0-.745.481,1.274,1.274,0,0,0-.193.649,1.071,1.071,0,0,0,.241.625,2.716,2.716,0,0,0,.818.649c.553.289,1.13.553,1.708.794a17.42,17.42,0,0,1,3.7,1.756,5.594,5.594,0,0,1,1.9,2,5.192,5.192,0,0,1,.553,2.477,5.6,5.6,0,0,1-.938,3.2,6.027,6.027,0,0,1-2.694,2.141,11.021,11.021,0,0,1-4.353.77,16.567,16.567,0,0,1-3.271-.313,9.7,9.7,0,0,1-2.453-.77.473.473,0,0,1-.265-.457v-4.185a.261.261,0,0,1,.1-.216.183.183,0,0,1,.216.024,10.292,10.292,0,0,0,2.982,1.178,11.193,11.193,0,0,0,2.838.361,4.591,4.591,0,0,0,2-.337,1.118,1.118,0,0,0,.649-1.01,1.275,1.275,0,0,0-.577-.962,10.213,10.213,0,0,0-2.357-1.13,14.713,14.713,0,0,1-3.415-1.732,6.228,6.228,0,0,1-1.828-2.044,5.158,5.158,0,0,1-.553-2.453,5.657,5.657,0,0,1,.818-2.91,5.93,5.93,0,0,1,2.525-2.213,9.327,9.327,0,0,1,4.257-.842,20.733,20.733,0,0,1,2.982.216,8.463,8.463,0,0,1,2.068.553.422.422,0,0,1,.241.216,1.2,1.2,0,0,1,.048.289v3.92a.3.3,0,0,1-.12.241A.642.642,0,0,1,162.077,98.356Z" transform="translate(5.714 80.511)" fill="#31a8ff"/>
    </g>
  </g>
</svg>
