<svg xmlns="http://www.w3.org/2000/svg" xmlns:xlink="http://www.w3.org/1999/xlink" width="64" height="64" viewBox="0 0 64 64">
  <defs>
    <linearGradient id="linear-gradient" x1="0.5" x2="0.5" y2="1" gradientUnits="objectBoundingBox">
      <stop offset="0" stop-color="#996258"/>
      <stop offset="0.546" stop-color="#5b362f"/>
      <stop offset="1" stop-color="#331a15"/>
    </linearGradient>
    <clipPath id="clip-Custom_Size_1">
      <rect width="64" height="64"/>
    </clipPath>
  </defs>
  <g id="Custom_Size_1" data-name="Custom Size – 1" clip-path="url(#clip-Custom_Size_1)">
    <rect width="64" height="64" fill="rgba(255,255,255,0)"/>
    <rect id="Rectangle_1" data-name="Rectangle 1" width="64" height="64" rx="18" fill="url(#linear-gradient)"/>
    <g id="Group_9" data-name="Group 9" transform="translate(1.812 -13.3)">
      <path id="Path_1" data-name="Path 1" d="M61.59,37.958c-.095-2.085.19-3.933-.758-5.5C58.557,28.575,52.87,26.3,41.5,26.3v.332h0V26.3c-11.374,0-17.345,2.275-19.62,6.208-.9,1.611-.806,3.412-.948,5.5-.095,1.659-.853,3.412-.521,5.308.379,2.464.521,4.929.9,7.2.284,1.848,2.843,3.412,3.08,5.166.663,4.834,5.687,7.061,17.061,7.061v.379H41.5v-.379c11.374,0,16.208-2.227,16.824-7.061.237-1.8,2.606-3.317,2.891-5.166.379-2.275.521-4.739.9-7.2C62.443,41.418,61.685,39.617,61.59,37.958Z" transform="translate(-10.593 0)" fill="#efcca3"/>
      <path id="Path_2" data-name="Path 2" d="M64.495,54.5c2.038.047,3.46,1.327,4.786,2.512,1.564,1.374,4.218,2.322,5.308,3.507s2.512,2.37,3.033,4.218a21.918,21.918,0,0,1,.663,4.834c0,.616.332.474,1.28,0a18.836,18.836,0,0,0,4.692-4.028c-.284,1.848-2.7,3.507-2.938,5.26-.569,4.834-5.26,7.156-16.871,7.156h.237" transform="translate(-33.781 -14.836)" fill="#ccac8d"/>
      <path id="Path_3" data-name="Path 3" d="M79.3,45.394c.427,1.469,1.943,6.445-1,4.786,0,0,1.232.711,1.99,3.412.806,2.7,2.749,3.033,2.749,3.033A7.159,7.159,0,0,0,88.584,55.2c1.99-1.706,2.322-4.739,1.469-7.061-.853-2.275-2.37-2.986-4.6-3.46C83.229,44.162,78.774,43.735,79.3,45.394Z" transform="translate(-41.094 -9.426)" fill="#ccac8d"/>
      <g id="Group_2" data-name="Group 2" transform="translate(39.67 37.2)">
        <circle id="Ellipse_1" data-name="Ellipse 1" cx="4.17" cy="4.17" r="4.17"/>
        <circle id="Ellipse_2" data-name="Ellipse 2" cx="1.09" cy="1.09" r="1.09" transform="translate(1.99 1.232)" fill="#fff"/>
      </g>
      <path id="Path_4" data-name="Path 4" d="M77.532,57.7a32.819,32.819,0,0,1,5.782,5.071c2.038,2.512,1.99,2.986,1.99,2.986l-1.469.663s-2.085-3.933-4.644-5.4c-2.606-1.469-2.891-2.7-2.891-2.7Z" transform="translate(-40.042 -16.519)" fill="#efcca3"/>
      <path id="Path_5" data-name="Path 5" d="M42.594,54.5c-2.038.047-3.554,1.327-4.929,2.512-1.564,1.374-4.313,2.322-5.4,3.507s-2.559,2.37-3.08,4.218a22.782,22.782,0,0,0-.711,4.834c0,.616.095.663-1.28,0-2.227-1.043-4.692-4.028-4.692-4.028.284,1.848,2.7,3.507,2.938,5.26.663,4.834,5.355,7.156,16.966,7.156h.237" transform="translate(-11.738 -14.836)" fill="#ccac8d"/>
      <path id="Path_6" data-name="Path 6" d="M61.213,65.4A13.994,13.994,0,0,0,50.218,60h-.047a13.994,13.994,0,0,0-10.995,5.4C36.806,68.293,37,69.431,37,72.179c0,9.952,3.507,7.109,5.829,8.341,2.37,1.185,4.834.806,7.346.806h.047c2.559,0,4.976.332,7.346-.853,2.322-1.185,5.829,1.753,5.829-8.2C63.44,69.526,63.582,68.293,61.213,65.4Z" transform="translate(-19.363 -17.729)" fill="#56332b"/>
      <path id="Path_7" data-name="Path 7" d="M63.3,65.2s-.332,4.6-1,5.5l1.232-.284Z" transform="translate(-32.677 -20.465)" fill="#442823"/>
      <path id="Path_8" data-name="Path 8" d="M64.837,65.2s.332,4.6,1,5.5L64.6,70.413Z" transform="translate(-33.887 -20.465)" fill="#442823"/>
      <path id="Path_9" data-name="Path 9" d="M56.612,59.691c-.474-1.09,1.232-2.843,3.933-2.891,2.7,0,4.407,1.753,3.933,2.891s-2.18,1.469-3.933,1.517C58.84,61.16,57.086,60.828,56.612,59.691Z" transform="translate(-29.643 -16.046)" fill="#56332b"/>
      <path id="Path_10" data-name="Path 10" d="M61.791,63.832c0-.19,1.611-.237,2.464-.806,0,0-1.753.569-2.133.332a1.144,1.144,0,0,1-.474-.758,1.55,1.55,0,0,1-.427.758,7.791,7.791,0,0,1-2.322-.332,18.87,18.87,0,0,1,2.654.806c0,.142-.047.616-.047.948a26.865,26.865,0,0,0,.19,4.36c.284.427.19-3.175.19-4.36C61.838,64.4,61.838,64.022,61.791,63.832Z" transform="translate(-30.888 -19.097)"/>
      <path id="Path_11" data-name="Path 11" d="M60.833,77.653a7.392,7.392,0,0,1,3.507,1.469c-1.232-1.374-2.7-2.322-3.507-2.322-.853,0-2.654,1.043-3.933,2.559A7.787,7.787,0,0,1,60.833,77.653Z" transform="translate(-29.836 -26.568)" fill="#7f4a41"/>
      <path id="Path_12" data-name="Path 12" d="M50.032,89.513a20.369,20.369,0,0,1-5.166-1c-.332-.095-.663.142-1,.047A13.31,13.31,0,0,1,37,83.969v.474c0,9.952,3.507,7.156,5.829,8.341,2.37,1.185,4.834.806,7.346.806h.047c2.559,0,4.976.332,7.346-.853C59.89,91.551,63.4,94.442,63.4,84.49a8.032,8.032,0,0,1,.047-1.09,12.827,12.827,0,0,1-7.014,5.023c-.284.095-.948-.142-1.232-.095A15.528,15.528,0,0,1,50.032,89.513Z" transform="translate(-19.367 -30.04)" fill="#442823"/>
      <path id="Path_13" data-name="Path 13" d="M53.369,85s-1.185,3.554-.379,5.118l-1.09-.474A24.085,24.085,0,0,1,53.369,85Z" transform="translate(-27.205 -30.882)" fill="#442823"/>
      <path id="Path_14" data-name="Path 14" d="M74.8,85s1.185,3.554.379,5.118l1.09-.474A28.077,28.077,0,0,0,74.8,85Z" transform="translate(-39.253 -30.882)" fill="#442823"/>
      <path id="Path_15" data-name="Path 15" d="M36.169,45.394c-.427,1.469-1.943,6.445,1,4.786,0,0-1.232.711-1.99,3.412a3.867,3.867,0,0,1-2.749,3.033A7.159,7.159,0,0,1,26.88,55.2c-1.99-1.706-2.322-4.739-1.469-7.061s2.37-2.986,4.6-3.46C32.235,44.162,36.642,43.735,36.169,45.394Z" transform="translate(-13.038 -9.426)" fill="#ccac8d"/>
      <path id="Path_16" data-name="Path 16" d="M59.008,76.379c1.28,0,5.26,2.749,5.308,6.113V82.3c0-3.507-3.223-6.3-5.308-6.3S53.7,78.843,53.7,82.3v.19C53.747,79.128,57.728,76.379,59.008,76.379Z" transform="translate(-28.152 -26.147)"/>
      <g id="Group_3" data-name="Group 3" transform="translate(29.092 42.193)">
        <ellipse id="Ellipse_3" data-name="Ellipse 3" cx="0.379" cy="0.711" rx="0.379" ry="0.711" transform="translate(2.076 0.195) rotate(-14.46)" fill="#331712"/>
        <ellipse id="Ellipse_4" data-name="Ellipse 4" cx="0.379" cy="0.711" rx="0.379" ry="0.711" transform="translate(0.421 0) rotate(17.235)" fill="#331712"/>
      </g>
      <g id="Group_4" data-name="Group 4" transform="translate(13.558 37.2)">
        <circle id="Ellipse_5" data-name="Ellipse 5" cx="4.17" cy="4.17" r="4.17"/>
        <circle id="Ellipse_6" data-name="Ellipse 6" cx="1.09" cy="1.09" r="1.09" transform="translate(4.17 1.232)" fill="#fff"/>
      </g>
      <g id="Group_5" data-name="Group 5" transform="translate(29.339 41.415)">
        <path id="Path_17" data-name="Path 17" d="M64.449,58.2c0-.047-1.09.474-1.374.521-.284-.047-1.374-.569-1.374-.521h2.749Z" transform="translate(-61.7 -58.194)" fill="#7f4a41"/>
      </g>
      <path id="Path_18" data-name="Path 18" d="M41.372,57.7a32.819,32.819,0,0,0-5.782,5.071c-2.038,2.512-1.99,2.986-1.99,2.986l1.469.663s2.085-3.933,4.644-5.4,2.891-2.7,2.891-2.7Z" transform="translate(-17.578 -16.519)" fill="#efcca3"/>
      <path id="Path_19" data-name="Path 19" d="M28.123,41.7S26.843,45.207,24,46.676C24,46.676,28.455,46.155,28.123,41.7Z" transform="translate(-12.527 -8.102)" fill="#ccac8d"/>
      <path id="Path_20" data-name="Path 20" d="M95.78,41.7s1.28,3.507,4.123,4.976C99.9,46.676,95.449,46.155,95.78,41.7Z" transform="translate(-50.281 -8.102)" fill="#ccac8d"/>
      <path id="Path_21" data-name="Path 21" d="M64.285,52.133a10.5,10.5,0,0,0-6.54-3.033h.095a10.341,10.341,0,0,0-6.54,3.033,11.3,11.3,0,0,1,6.54-2.227h0A12.177,12.177,0,0,1,64.285,52.133Z" transform="translate(-26.89 -11.995)" fill="#ccac8d"/>
      <path id="Path_22" data-name="Path 22" d="M64.593,40.238s-1.422-1.99-3.317-2.038h.095c-1.422.047-3.27,2.038-3.27,2.038a4.912,4.912,0,0,1,3.27-1.516h0A4.924,4.924,0,0,1,64.593,40.238Z" transform="translate(-30.467 -6.261)" fill="#ccac8d"/>
      <path id="Path_23" data-name="Path 23" d="M30.519,70.1s-2.227,1.09-3.839.427h-.047C25.211,69.717,24.5,67.3,24.5,67.3A4.579,4.579,0,0,0,30.519,70.1Z" transform="translate(-12.79 -21.57)" fill="#ccac8d"/>
      <path id="Path_24" data-name="Path 24" d="M92,70.1s2.227,1.09,3.839.427h0c1.9-.806,2.18-3.223,2.18-3.223A4.579,4.579,0,0,1,92,70.1Z" transform="translate(-48.302 -21.57)" fill="#ccac8d"/>
      <g id="Group_6" data-name="Group 6" transform="translate(20.287 32.984)">
        <path id="Path_25" data-name="Path 25" d="M42.6,40.782a10.869,10.869,0,0,1,4.881.237c2.038.711.379,3.317.806,3.46s1-1.8,4.786-1.611c3.839.19,4.265,1.9,4.786,1.611s-.521-4.739,5.213-3.7c0,0-6.019-1.611-5.734,2.749a8.064,8.064,0,0,0-8.293-.284C49.093,43.246,50.325,39.17,42.6,40.782Z" transform="translate(-42.6 -40.405)" fill="#ccac8d"/>
      </g>
      <path id="Path_26" data-name="Path 26" d="M86.9,41.2c.095,0,.142.047.19.047S87.042,41.2,86.9,41.2Z" transform="translate(-45.619 -7.839)" fill="#ccac8d"/>
      <path id="Path_27" data-name="Path 27" d="M86.9,41.2Z" transform="translate(-45.619 -7.839)" fill="#ccac8d"/>
      <path id="Path_28" data-name="Path 28" d="M27.736,28.9s-5.118,6.445-5.876,8.909c-.758,2.512-1.327,12.8-1.99,14.265L17.5,41.932l4.36-10.568Z" transform="translate(-9.108 -1.368)" fill="#ccac8d"/>
      <path id="Path_29" data-name="Path 29" d="M89.9,28.9s5.118,6.445,5.876,8.909c.758,2.512,1.327,12.8,1.99,14.265l2.37-10.142-4.36-10.568Z" transform="translate(-47.197 -1.368)" fill="#ccac8d"/>
      <path id="Path_30" data-name="Path 30" d="M89.382,28.71s5.5,4.6,7.109,9.9.948,11.753,2.18,12.559c1.753,1.137,3.744-5.639,4.407-6.35,1.043-1.137,4.5-4.028,4.739-4.55s-7.014-8.436-10.189-10C93.789,28.473,89.05,28.331,89.382,28.71Z" transform="translate(-46.916 -1.178)" fill="#56332b"/>
      <path id="Path_31" data-name="Path 31" d="M99.3,34.9s6.493,8.293,6.4,18.625l2.606-5.308A38.953,38.953,0,0,0,99.3,34.9Z" transform="translate(-52.142 -4.524)" fill="#442823"/>
      <path id="Path_32" data-name="Path 32" d="M18.629,28.71s-5.5,4.6-7.109,9.9-.948,11.753-2.18,12.559c-1.753,1.137-3.744-5.639-4.407-6.35C3.89,43.686.431,40.795.194,40.274s7.014-8.436,10.189-10C14.221,28.473,18.96,28.331,18.629,28.71Z" transform="translate(0 -1.178)" fill="#56332b"/>
      <path id="Path_33" data-name="Path 33" d="M19.257,34.9s-6.493,8.293-6.4,18.625L10.3,48.217A37.53,37.53,0,0,1,19.257,34.9Z" transform="translate(-5.32 -4.524)" fill="#442823"/>
      <path id="Path_34" data-name="Path 34" d="M21.8,72.168s.474,2.559,1.232,3.365.237-.616.237-.616-.806-.427-.663-3.7S21.8,72.168,21.8,72.168Z" transform="translate(-11.37 -22.979)" fill="#ccac8d"/>
      <path id="Path_35" data-name="Path 35" d="M105.275,72.168s-.474,2.559-1.232,3.365-.237-.616-.237-.616.806-.427.663-3.7S105.275,72.168,105.275,72.168Z" transform="translate(-54.421 -22.979)" fill="#ccac8d"/>
      <g id="Group_7" data-name="Group 7" transform="translate(22.657 46.868)">
        <circle id="Ellipse_7" data-name="Ellipse 7" cx="0.379" cy="0.379" r="0.379" transform="translate(2.891)" fill="#442823"/>
        <circle id="Ellipse_8" data-name="Ellipse 8" cx="0.379" cy="0.379" r="0.379" transform="translate(0.711 2.275)" fill="#442823"/>
        <circle id="Ellipse_9" data-name="Ellipse 9" cx="0.379" cy="0.379" r="0.379" fill="#442823"/>
      </g>
      <g id="Group_8" data-name="Group 8" transform="translate(34.789 46.868)">
        <circle id="Ellipse_10" data-name="Ellipse 10" cx="0.379" cy="0.379" r="0.379" fill="#442823"/>
        <circle id="Ellipse_11" data-name="Ellipse 11" cx="0.379" cy="0.379" r="0.379" transform="translate(2.18 2.275)" fill="#442823"/>
        <circle id="Ellipse_12" data-name="Ellipse 12" cx="0.379" cy="0.379" r="0.379" transform="translate(2.891)" fill="#442823"/>
      </g>
    </g>
  </g>
</svg>
