<svg xmlns="http://www.w3.org/2000/svg" xmlns:xlink="http://www.w3.org/1999/xlink" width="64" height="64" viewBox="0 0 64 64">
  <defs>
    <linearGradient id="linear-gradient" x1="0.5" x2="0.5" y2="1" gradientUnits="objectBoundingBox">
      <stop offset="0" stop-color="#f991a9"/>
      <stop offset="1" stop-color="#b62446"/>
    </linearGradient>
    <clipPath id="clip-Custom_Size_1">
      <rect width="64" height="64"/>
    </clipPath>
  </defs>
  <g id="Custom_Size_1" data-name="Custom Size – 1" clip-path="url(#clip-Custom_Size_1)">
    <rect width="64" height="64" fill="rgba(255,255,255,0)"/>
    <rect id="Rectangle_1" data-name="Rectangle 1" width="64" height="64" rx="18" fill="url(#linear-gradient)"/>
    <path id="sass" d="M24.148,45.035C24.124,45.083,24.1,45.121,24.148,45.035Zm19.928-6.959a10.492,10.492,0,0,0-4.64,1.08,9.852,9.852,0,0,1-1.04-2.408,6.427,6.427,0,0,1-.088-2.024,17.043,17.043,0,0,1,.608-2.176c-.008-.088-.112-.528-1.144-.536s-1.92.2-2.023.472a9.825,9.825,0,0,0-.424,1.528A37.065,37.065,0,0,1,32.2,40.035a6.211,6.211,0,0,1-.712-1.76,6.427,6.427,0,0,1-.088-2.024,17.044,17.044,0,0,1,.608-2.176c-.008-.088-.112-.528-1.143-.536s-1.92.2-2.024.472-.216.912-.424,1.528-2.711,6.183-3.366,7.631c-.336.736-.624,1.328-.832,1.728-.032.064-.056.1-.072.136.024-.04.04-.08.04-.064-.176.344-.28.536-.28.536v.008c-.136.256-.288.488-.36.488a3.318,3.318,0,0,1,.024-1.592c.376-1.936,1.264-4.943,1.256-5.047-.008-.056.168-.576-.584-.856a.942.942,0,0,0-1.056.176c-.064,0-.112.16-.112.16s.808-3.392-1.551-3.392c-1.472,0-3.52,1.616-4.526,3.08-.632.344-2,1.088-3.44,1.88l-1.656.912c-.04-.04-.072-.08-.112-.12-2.863-3.056-8.149-5.215-7.925-9.319.08-1.5.6-5.423,10.165-10.191,7.839-3.9,14.107-2.832,15.186-.448,1.552,3.4-3.351,9.727-11.492,10.639-3.1.344-4.734-.856-5.142-1.3-.424-.472-.488-.5-.648-.408-.264.144-.1.56,0,.808a4.82,4.82,0,0,0,2.943,2.312c1.5.488,5.134.76,9.533-.944,4.942-1.9,8.789-7.207,7.661-11.647-1.149-4.512-8.63-5.991-15.7-3.48A35.582,35.582,0,0,0,4.316,24.133C.421,27.78-.2,30.956.054,32.284c.911,4.712,7.4,7.783,10,10.055-.128.072-.248.136-.36.2-1.3.648-6.254,3.24-7.493,5.975-1.4,3.1.232,5.327,1.3,5.631a7.986,7.986,0,0,0,8.6-3.488A8.661,8.661,0,0,0,12.88,42.7c-.008-.024-.024-.04-.032-.064.336-.2.68-.4,1.024-.6.663-.392,1.311-.752,1.879-1.064a12.425,12.425,0,0,0-.672,3.408,7.081,7.081,0,0,0,1.528,4.935,1.679,1.679,0,0,0,1.231.4c1.1,0,1.6-.912,2.151-2,.68-1.328,1.28-2.872,1.28-2.872s-.752,4.176,1.3,4.176c.751,0,1.5-.968,1.84-1.464v.008s.016-.032.056-.1c.08-.12.12-.192.12-.192V47.25c.3-.52.968-1.712,1.967-3.68,1.3-2.544,2.535-5.719,2.535-5.719a16.1,16.1,0,0,0,.5,2.064,19.323,19.323,0,0,0,1.072,2.4c-.3.416-.488.656-.488.656a.025.025,0,0,0,.008.016c-.24.32-.512.664-.792,1a28.235,28.235,0,0,0-2.4,3.008.817.817,0,0,0,.224,1.1,1.944,1.944,0,0,0,1.255.2,5.547,5.547,0,0,0,1.88-.432,6.575,6.575,0,0,0,1.615-.848,3.611,3.611,0,0,0,1.552-3.184,6.625,6.625,0,0,0-.584-2.256c.088-.128.184-.264.272-.4a42.525,42.525,0,0,0,2.807-4.849,16.1,16.1,0,0,0,.5,2.064,14.109,14.109,0,0,0,.911,2.056,8.793,8.793,0,0,0-2.727,3.528c-.592,1.7-.128,2.472.744,2.648a2.684,2.684,0,0,0,1.368-.28,6.356,6.356,0,0,0,1.727-.888,3.865,3.865,0,0,0,1.9-3.168A5.951,5.951,0,0,0,40,40.409a9.764,9.764,0,0,1,4.967-.576c4.454.52,5.326,3.3,5.158,4.464a2.957,2.957,0,0,1-1.416,2c-.312.192-.408.264-.384.408.04.208.184.2.448.152a3.475,3.475,0,0,0,2.423-3.1c.128-2.72-2.487-5.711-7.119-5.687ZM9.745,49.65c-1.471,1.608-3.535,2.216-4.422,1.7-.952-.554-.576-2.92,1.239-4.633a23.7,23.7,0,0,1,3.471-2.592c.216-.128.528-.32.912-.552.064-.04.1-.056.1-.056.072-.048.152-.088.232-.136a6.385,6.385,0,0,1-1.528,6.263Zm10.748-7.311c-.512,1.256-1.591,4.456-2.247,4.288-.56-.144-.9-2.584-.112-4.983a11.033,11.033,0,0,1,1.752-3.208c.807-.9,1.7-1.192,1.9-.832C22.069,38.075,20.813,41.555,20.493,42.339Zm8.879,4.24c-.216.112-.416.184-.512.128-.072-.04.088-.192.088-.192s1.112-1.192,1.552-1.736c.256-.32.552-.7.871-1.112,0,.04.008.08.008.128-.01,1.432-1.385,2.4-2.009,2.784Zm6.846-1.56c-.16-.112-.136-.488.4-1.656a6.217,6.217,0,0,1,1.52-1.96,2.894,2.894,0,0,1,.152.864,2.82,2.82,0,0,1-2.071,2.752Z" transform="translate(5.996 -3.004)" fill="#fff"/>
  </g>
</svg>
