<svg xmlns="http://www.w3.org/2000/svg" xmlns:xlink="http://www.w3.org/1999/xlink" width="64" height="64" viewBox="0 0 64 64">
  <defs>
    <linearGradient id="linear-gradient" x1="0.5" x2="0.5" y2="1" gradientUnits="objectBoundingBox">
      <stop offset="0" stop-color="#fff" stop-opacity="0"/>
      <stop offset="1" stop-color="gray" stop-opacity="0"/>
    </linearGradient>
    <clipPath id="clip-Custom_Size_1">
      <rect width="64" height="64"/>
    </clipPath>
  </defs>
  <g id="Custom_Size_1" data-name="Custom Size – 1" clip-path="url(#clip-Custom_Size_1)">
    <rect width="64" height="64" fill="url(#linear-gradient)"/>
    <g id="Rectangle_1" data-name="Rectangle 1" fill="#470137" stroke="#f35ae9" stroke-width="3">
      <rect width="64" height="64" rx="18" stroke="none"/>
      <rect x="1.5" y="1.5" width="61" height="61" rx="16.5" fill="none"/>
    </g>
    <g id="Group_1" data-name="Group 1" transform="translate(-202 17)">
      <path id="Path_17" data-name="Path 17" d="M66.646,79.1,58.871,91.933l8.293,13.606a.446.446,0,0,1,.052.311c-.026.1-.13.026-.285.052H61c-.415,0-.7-.026-.881-.285-.544-1.088-1.114-2.151-1.659-3.24-.544-1.063-1.14-2.151-1.762-3.265s-1.244-2.229-1.866-3.369h-.052c-.544,1.114-1.14,2.229-1.736,3.343s-1.192,2.229-1.762,3.317c-.6,1.088-1.192,2.2-1.788,3.265-.1.259-.311.285-.6.285h-5.7c-.1,0-.181.052-.181-.078a.36.36,0,0,1,.052-.285l8.06-13.217-7.853-13.3c-.078-.1-.1-.207-.052-.259a.3.3,0,0,1,.259-.1H49.36a1.53,1.53,0,0,1,.363.052.735.735,0,0,1,.259.233c.492,1.114,1.063,2.229,1.659,3.343.622,1.114,1.218,2.2,1.866,3.291.622,1.088,1.192,2.177,1.736,3.291h.052c.544-1.14,1.114-2.255,1.685-3.343s1.166-2.177,1.762-3.265,1.166-2.2,1.736-3.265a.441.441,0,0,1,.155-.259.494.494,0,0,1,.337-.052h5.468a.239.239,0,0,1,.285.181C66.749,78.949,66.7,79.052,66.646,79.1Z" transform="translate(169 -76.457)" fill="#ff61f6"/>
      <path id="Path_18" data-name="Path 18" d="M149.247,99.989a12.885,12.885,0,0,1-5.572-1.166,9.035,9.035,0,0,1-3.913-3.525,11.214,11.214,0,0,1-1.425-5.909,10.644,10.644,0,0,1,1.425-5.468,10.762,10.762,0,0,1,4.121-4.017,13.257,13.257,0,0,1,6.557-1.5,4.628,4.628,0,0,1,.544.026c.233.026.492.026.8.052v-8.19c0-.181.078-.285.259-.285h5.261a.232.232,0,0,1,.259.181V94.91c0,.466.026.985.052,1.555.052.544.078,1.063.1,1.5a.421.421,0,0,1-.259.415,19.793,19.793,0,0,1-4.224,1.244A22.861,22.861,0,0,1,149.247,99.989Zm2.54-5.183V83.4a6.629,6.629,0,0,0-.7-.13c-.285-.026-.57-.052-.855-.052a6.389,6.389,0,0,0-2.929.674,5.81,5.81,0,0,0-2.2,1.918,5.745,5.745,0,0,0-.855,3.291,7.222,7.222,0,0,0,.441,2.669,5.065,5.065,0,0,0,1.166,1.84,4.477,4.477,0,0,0,1.762,1.037,6.784,6.784,0,0,0,2.151.337c.389,0,.752-.026,1.089-.052A2.267,2.267,0,0,0,151.787,94.806Z" transform="translate(98.372 -70)" fill="#ff61f6"/>
    </g>
  </g>
</svg>
